<svg width="73" height="60" viewBox="0 0 73 60" fill="none" xmlns="http://www.w3.org/2000/svg">
<g filter="url(#filter0_i)">
<rect width="73" height="60" rx="12" fill="black"/>
</g>
<path d="M47.8408 12.501C47.6992 12.5054 47.5601 12.5559 47.4502 12.6526L44.3569 15.2629C40.2114 13.136 35.3994 12.5669 30.7827 13.6589C26.0952 14.762 22.1694 17.4448 19.7256 21.2021C17.2817 24.9661 16.6128 29.3584 17.8433 33.5706C19.0371 37.6882 21.9131 41.1533 25.9316 43.3594L23.9492 46.6223C23.8076 46.864 23.876 47.1672 24.1177 47.3364C24.2324 47.4155 24.3618 47.4551 24.4985 47.4551C24.6548 47.4551 24.8061 47.4045 24.9258 47.3079L28.3364 44.4778C30.5679 45.3215 32.9434 45.7566 35.3433 45.7566C36.8862 45.7566 38.4365 45.5764 39.9673 45.2161C44.6548 44.113 48.5806 41.4302 51.0244 37.6729C53.4683 33.9089 54.1372 29.5166 52.9067 25.3044C51.8887 21.8042 49.6621 18.772 46.5493 16.5967L48.4316 13.3162C48.5684 13.0745 48.4927 12.7756 48.2485 12.613C48.1289 12.5317 47.9824 12.4944 47.8408 12.501ZM35.4067 14.2456C38.1753 14.2456 40.9121 14.863 43.3999 16.0737L29.3765 27.9016C29.1885 28.0598 29.125 28.3059 29.2202 28.5212C29.313 28.7344 29.5449 28.875 29.7988 28.875H32.1426L26.1758 35.8447C26.0317 36.0139 26.0073 36.2424 26.1074 36.4336C26.2124 36.627 26.4321 36.75 26.6689 36.75H29.9502L28.3437 39.3977C25.5361 37.7937 23.5268 35.3394 22.6797 32.4346C21.791 29.3804 22.2744 26.2009 24.0444 23.4763C25.8144 20.7517 28.6562 18.8115 32.0474 18.0117C33.0337 17.7788 34.0469 17.6492 35.0552 17.625C35.3994 17.6184 35.6728 17.3591 35.6655 17.0493C35.6558 16.7395 35.3652 16.4802 35.0234 16.5C33.9175 16.5264 32.8091 16.6692 31.73 16.9219C28.0166 17.7986 24.9038 19.9255 22.9653 22.9072C21.0268 25.8911 20.4971 29.376 21.4687 32.718C22.4038 35.9238 24.6304 38.6331 27.7407 40.3887L26.5371 42.3684C24.7305 41.3796 23.1753 40.1074 21.9253 38.6221C20.5996 37.0532 19.6255 35.2537 19.0518 33.2893C17.9067 29.365 18.5317 25.2737 20.8047 21.7712C23.0801 18.271 26.7373 15.7749 31.0952 14.7466C32.5259 14.4082 33.9687 14.2456 35.4067 14.2456ZM45.6631 15.7002L45.5312 15.9331L44.9551 16.9395L43.6489 19.2158L43.2876 19.8464L40.519 24.6782C40.4189 24.8518 40.4238 25.0605 40.5386 25.2297C40.6509 25.3989 40.8559 25.5 41.0757 25.5L44.0688 25.5066L38.2485 31.3381C38.0874 31.5029 38.0435 31.738 38.1484 31.9402C38.2485 32.1423 38.4683 32.272 38.7173 32.272H41.2124L28.1069 43.1462L27.1182 43.9614L26.8765 44.1636L27.0254 43.9153L27.6235 42.9309L31.5566 36.4578C31.6641 36.2842 31.6567 36.0688 31.5444 35.8997C31.4297 35.7327 31.2246 35.625 31.0073 35.625H27.936L33.9126 28.6553C34.0566 28.4861 34.081 28.2576 33.9761 28.0664C33.876 27.873 33.6562 27.75 33.4194 27.75H31.3809L44.5132 16.6758L45.4507 15.8804L45.6631 15.7002ZM37.8555 16.6912C37.5137 16.6384 37.1938 16.8428 37.1328 17.1482C37.0718 17.4536 37.3013 17.7459 37.6406 17.8008C38.0996 17.8733 38.561 17.9678 39.0102 18.0842C39.0688 18.0996 39.1274 18.1084 39.1836 18.1084C39.457 18.1084 39.7036 17.948 39.7842 17.7019C39.8794 17.4031 39.689 17.0911 39.3569 17.0054C38.8638 16.8757 38.3608 16.7703 37.8555 16.6912ZM45.9683 17.614C48.7685 19.6399 50.7754 22.4063 51.7007 25.5857C52.8433 29.51 52.2183 33.6013 49.9453 37.1038C47.6699 40.604 44.0127 43.1001 39.6548 44.1306C36.2002 44.9392 32.6309 44.7612 29.3618 43.6296L43.2363 32.127C43.4243 31.9688 43.4878 31.7205 43.3926 31.5073C43.3071 31.2942 43.0752 31.147 42.814 31.147H40.1186L45.9316 25.3198C46.0952 25.1506 46.1367 24.9155 46.0391 24.7112C45.939 24.509 45.7119 24.3816 45.4702 24.3816L42.1011 24.375L44.2056 20.7012C48.7368 24.4102 49.8379 30.5735 46.7129 35.3877C46.5371 35.658 46.6372 36.0007 46.9375 36.1589C47.0376 36.2095 47.1426 36.2314 47.25 36.2314C47.4697 36.2314 47.6748 36.137 47.7944 35.9568C51.2734 30.5911 49.9697 23.6938 44.7939 19.6663L45.9683 17.614ZM44.0298 37.5081C43.8686 37.5081 43.71 37.5608 43.5879 37.6707C43.3413 37.8882 43.3389 38.2441 43.5806 38.4661L44.4595 39.2659C44.5815 39.3779 44.7427 39.4329 44.9038 39.4329C45.0625 39.4329 45.2212 39.3779 45.3433 39.2703C45.5898 39.0527 45.5898 38.6968 45.3481 38.4749L44.4692 37.6751C44.3496 37.5652 44.1909 37.5081 44.0298 37.5081ZM41.4175 39.2417C41.3369 39.2505 41.2563 39.2725 41.1807 39.312C40.8804 39.4658 40.7778 39.8086 40.9487 40.0789L41.5664 41.0566C41.6811 41.239 41.8911 41.3401 42.1108 41.3401C42.2158 41.3401 42.3208 41.3159 42.4184 41.2676C42.7187 41.1138 42.8237 40.7688 42.6528 40.5007L42.0352 39.5208C41.9058 39.3186 41.6592 39.2153 41.4175 39.2417ZM38.6343 40.325C38.5537 40.314 38.4707 40.3184 38.3852 40.3381C38.0532 40.4172 37.853 40.7249 37.9409 41.0237L38.2559 42.1135C38.3315 42.3662 38.583 42.5332 38.8613 42.5332C38.915 42.5332 38.9663 42.5266 39.02 42.5156C39.3545 42.4365 39.5547 42.1289 39.4668 41.8279L39.1494 40.7402C39.0835 40.5139 38.876 40.3557 38.6343 40.325ZM35.3872 40.6787C35.0454 40.6787 34.7646 40.927 34.7622 41.239L34.7573 42.364C34.7549 42.6738 35.0332 42.9265 35.3774 42.9287H35.3823C35.7266 42.9287 36.0049 42.6782 36.0073 42.3684L36.0122 41.2434C36.0146 40.9336 35.7363 40.6787 35.3921 40.6787H35.3872Z" fill="white"/>
<defs>
<filter id="filter0_i" x="0" y="0" width="77" height="60" filterUnits="userSpaceOnUse" color-interpolation-filters="sRGB">
<feFlood flood-opacity="0" result="BackgroundImageFix"/>
<feBlend mode="normal" in="SourceGraphic" in2="BackgroundImageFix" result="shape"/>
<feColorMatrix in="SourceAlpha" type="matrix" values="0 0 0 0 0 0 0 0 0 0 0 0 0 0 0 0 0 0 127 0" result="hardAlpha"/>
<feOffset dx="4"/>
<feGaussianBlur stdDeviation="7.5"/>
<feComposite in2="hardAlpha" operator="arithmetic" k2="-1" k3="1"/>
<feColorMatrix type="matrix" values="0 0 0 0 0 0 0 0 0 0 0 0 0 0 0 0 0 0 0.25 0"/>
<feBlend mode="normal" in2="shape" result="effect1_innerShadow"/>
</filter>
</defs>
</svg>
